<?xml version="1.0" encoding="UTF-8"?>
<svg version="1.1" xmlns="http://www.w3.org/2000/svg" width="537" height="537">
<path d="M0 0 C3.71308915 0.00914236 7.42610626 -0.00496414 11.13918054 -0.01591969 C18.39186255 -0.03361209 25.64437804 -0.0299068 32.8970663 -0.01826912 C38.796169 -0.00919896 44.69522536 -0.0080262 50.59433305 -0.01236439 C51.43709491 -0.01297732 52.27985677 -0.01359025 53.14815686 -0.01422176 C54.86072836 -0.01550078 56.57329985 -0.01679764 58.28587132 -0.01811212 C74.30622196 -0.02949055 90.32648072 -0.01644698 106.34681629 0.00508934 C120.06548704 0.0229611 133.78402236 0.01985027 147.50269067 0.0014143 C163.47114794 -0.02003532 179.43952491 -0.02839559 195.40799457 -0.01613665 C197.11361121 -0.01486258 198.81922786 -0.01360509 200.52484453 -0.01236439 C201.78332541 -0.01143873 201.78332541 -0.01143873 203.06723015 -0.01049438 C208.95344715 -0.00705397 214.83961281 -0.01284137 220.72582185 -0.0222826 C227.90738856 -0.03354943 235.08878059 -0.03036466 242.27032752 -0.00915962 C245.92800093 0.00128776 249.58538407 0.00558188 253.24305475 -0.00775623 C275.8088011 -0.08310961 293.81526331 0.68826735 311.03564966 16.85102367 C323.12496599 29.99743444 327.50020728 45.33275293 327.80908716 62.95258617 C327.82986825 63.94291851 327.85064935 64.93325085 327.87206018 65.95359325 C327.93718411 69.10162785 327.9962672 72.24974234 328.05518091 75.39789867 C328.09840149 77.53853177 328.1420169 79.67915694 328.18604028 81.81977367 C328.29282718 87.05406543 328.39466102 92.28843579 328.49268091 97.52289867 C329.17725366 96.95442211 329.86182642 96.38594555 330.5671438 95.80024242 C336.56313128 90.85271388 342.64135737 86.09070943 348.93018091 81.52289867 C350.59839596 80.30188095 352.26636558 79.08052782 353.93408716 77.85883617 C355.11962183 76.99210278 355.11962183 76.99210278 356.32910669 76.10785961 C362.68505619 71.45170703 368.96363199 66.69414191 375.22314966 61.90961742 C384.08260409 55.13857495 392.95652901 48.39225652 401.93018091 41.77289867 C402.7043435 41.20095776 403.4785061 40.62901684 404.27612817 40.03974438 C413.08980674 33.56198724 419.1034561 29.43078123 430.49268091 30.52289867 C436.58872016 32.24976304 441.21220029 36.14252339 444.49268091 41.52289867 C447.01901423 47.34091968 447.92823411 51.94647783 447.87363183 58.25165844 C447.88065179 59.51526243 447.88065179 59.51526243 447.88781357 60.80439377 C447.89971419 63.60786091 447.89032575 66.41083474 447.8808645 69.21430492 C447.88493239 71.23203852 447.89027549 73.24976989 447.89679468 75.26749706 C447.91044812 80.73438404 447.90517771 86.2011008 447.89565742 91.66799068 C447.88805065 97.39510328 447.89510926 103.12220151 447.89981592 108.84931469 C447.90527049 118.46612185 447.89808964 128.08285984 447.88379419 137.69965649 C447.86746829 148.81052888 447.872757 159.9212361 447.88927341 171.03210449 C447.90289672 180.57967223 447.90480378 190.12719031 447.8969574 199.67476463 C447.89228555 205.37361069 447.89164265 211.07237917 447.90156686 216.77122021 C447.91024651 222.12945425 447.90419622 227.48747578 447.88688409 232.84568691 C447.88292461 234.8096497 447.88404406 236.77363043 447.89067209 238.73758602 C447.89889892 241.42334335 447.88855233 244.10842439 447.87363183 246.79413891 C447.88367008 247.9533024 447.88367008 247.9533024 447.89391112 249.13588333 C447.82153422 255.8763053 446.11500389 261.11259024 442.30518091 266.77289867 C437.19875807 271.76584545 431.39695083 274.05438628 424.36768091 274.89789867 C415.1086409 274.00186254 407.63751768 267.68098536 400.55518091 262.08539867 C398.70335284 260.64786453 396.85046682 259.21169231 394.99658716 257.77680492 C394.07377954 257.06024731 393.15097192 256.34368969 392.20020044 255.60541821 C388.1786786 252.51221881 384.08997892 249.51456973 379.99268091 246.52289867 C373.26691269 241.59836141 366.61219237 236.58931015 359.99268091 231.52289867 C352.99602184 226.16899007 345.96199655 220.87184516 338.86768091 215.64789867 C338.06781763 215.05879711 337.26795434 214.46969555 336.44385278 213.86274242 C333.48932955 211.69385963 330.54297377 209.55642725 327.49268091 207.52289867 C327.50839136 208.80229321 327.52410181 210.08168774 327.54028833 211.3998518 C327.59528098 216.2231907 327.62927885 221.04650294 327.65747583 225.87006664 C327.6724066 227.94335649 327.6927586 230.01661565 327.71899927 232.08979321 C328.01228338 255.88606136 325.55723733 274.34487504 308.69580591 292.45258617 C297.29668909 303.41327543 283.11095737 306.83055291 267.81136072 306.79032421 C266.54371289 306.79485532 265.27606506 306.79938644 263.97000366 306.80405486 C260.46726053 306.81624219 256.96461322 306.81602945 253.46185374 306.81366611 C249.67778276 306.81325685 245.89374206 306.82430749 242.1096853 306.83378124 C234.70155066 306.85036919 227.29344786 306.85588981 219.8852962 306.857006 C213.86061275 306.8579576 207.83593977 306.86207348 201.81125963 306.86840725 C184.71440179 306.88601428 167.61756902 306.89524706 150.52070204 306.8937463 C149.59968505 306.89366639 148.67866805 306.89358648 147.72974145 306.89350414 C146.80759431 306.89342238 145.88544716 306.89334062 144.93535616 306.89325638 C129.99722784 306.89244382 115.05920044 306.91157542 100.1211013 306.93978088 C84.76729959 306.96854147 69.41354704 306.9823194 54.05971771 306.98059332 C45.4459623 306.97993048 36.83231265 306.9853763 28.21858156 307.00694942 C20.88343684 307.02520315 13.54844582 307.02947434 6.21328817 307.01593058 C2.47489753 307.00942174 -1.26319859 307.00920753 -5.00156081 307.02663708 C-9.06495452 307.04538617 -13.12767284 307.03275901 -17.19108069 307.01737499 C-18.35784171 307.02766212 -19.52460274 307.03794924 -20.72672015 307.0485481 C-36.00235769 306.92131742 -49.57037783 301.36169216 -60.75731909 290.96039867 C-74.94491032 275.92749203 -76.96067826 259.77850762 -76.91137183 239.94355297 C-76.91708143 237.8661465 -76.92404797 235.78874316 -76.93216956 233.71134472 C-76.95005232 228.0934211 -76.94894156 222.47565409 -76.94322717 216.8577106 C-76.94012776 212.15622589 -76.94623625 207.45477094 -76.95226592 202.75329047 C-76.96629399 191.65506484 -76.9647646 180.5569162 -76.95336401 169.45868969 C-76.94188889 158.0359894 -76.95595235 146.61352406 -76.98276049 135.19085473 C-77.00496413 125.35948087 -77.01154423 115.5281805 -77.00568408 105.69678336 C-77.00232394 99.83567604 -77.00466657 93.97471923 -77.02193511 88.11363316 C-77.03747619 82.5985311 -77.03336944 77.08377522 -77.01462996 71.56868649 C-77.01096363 69.55402407 -77.01399488 67.53933559 -77.02451575 65.5246973 C-77.11570758 46.60608281 -74.32655797 30.5843439 -60.81981909 16.21039867 C-43.18319307 -0.31233518 -22.7936779 -0.0831956 0 0 Z " fill="#0171F6" transform="translate(82.50731909275055,117.47710132598877)"/>
<path d="M0 0 C5.14780908 3.37350754 9.44258053 7.74395885 13.72265625 12.12890625 C14.32722656 12.71285156 14.93179688 13.29679687 15.5546875 13.8984375 C26.74523238 25.56140644 30.2135662 41.80516702 30.07226562 57.36181641 C29.57390317 76.22887595 21.3494378 92.06813435 7.796875 104.9609375 C-4.11849921 114.63101636 -18.90151334 119.72031337 -34.08984375 119.56640625 C-35.14792236 119.55810791 -36.20600098 119.54980957 -37.29614258 119.54125977 C-45.30535831 119.36828385 -51.92527297 118.49443184 -59.27734375 115.12890625 C-60.34726563 114.65453125 -61.4171875 114.18015625 -62.51953125 113.69140625 C-75.2100126 107.48053538 -84.50760235 98.54643752 -91.27734375 86.12890625 C-91.674375 85.44183594 -92.07140625 84.75476563 -92.48046875 84.046875 C-96.65759393 76.3940076 -98.58083232 67.76564799 -99.27734375 59.12890625 C-99.33019531 58.48050781 -99.38304688 57.83210938 -99.4375 57.1640625 C-100.11688584 41.30188007 -94.1831552 25.44847469 -83.77734375 13.56640625 C-82.29906099 12.06553513 -80.80039516 10.58432661 -79.27734375 9.12890625 C-78.35888672 8.18144531 -78.35888672 8.18144531 -77.421875 7.21484375 C-69.32040837 -0.62751413 -58.10194449 -5.23589132 -47.27734375 -7.87109375 C-46.35042725 -8.12802002 -46.35042725 -8.12802002 -45.40478516 -8.39013672 C-30.05210339 -11.86096333 -13.27739031 -7.81197685 0 0 Z " fill="#F2433E" transform="translate(173.27734375,261.87109375)"/>
</svg>



